{
  "version": "1.1.6",
  "modules": [
    {
      "id": 0,
      "plugin": "MockbaModular",
      "version": "1.1.0",
      "model": "FeidahS",
      "params": [
        {
          "id": 0,
          "value": 0.031500008
        }
      ],
      "leftModuleId": 8,
      "rightModuleId": 1,
      "pos": [
        49,
        0
      ]
    },
    {
      "id": 1,
      "plugin": "Core",
      "version": "1.1.6",
      "model": "AudioInterface",
      "params": [],
      "leftModuleId": 0,
      "data": {
        "audio": {
          "driver": 7,
          "deviceName": "ASIO Link Pro",
          "offset": 0,
          "maxChannels": 8,
          "sampleRate": 44100,
          "blockSize": 256
        }
      },
      "pos": [
        51,
        0
      ]
    },
    {
      "id": 2,
      "plugin": "MockbaModular",
      "version": "1.1.0",
      "model": "CZSaw",
      "params": [
        {
          "id": 0,
          "value": -14.9999914
        },
        {
          "id": 1,
          "value": 0.0
        },
        {
          "id": 2,
          "value": 0.0
        }
      ],
      "leftModuleId": 5,
      "rightModuleId": 9,
      "pos": [
        17,
        0
      ]
    },
    {
      "id": 3,
      "plugin": "JW-Modules",
      "version": "1.0.9",
      "model": "SimpleClock",
      "params": [
        {
          "id": 0,
          "value": 2.38000011
        },
        {
          "id": 1,
          "value": 0.0
        },
        {
          "id": 2,
          "value": -2.0
        },
        {
          "id": 3,
          "value": 0.0
        }
      ],
      "rightModuleId": 5,
      "data": {
        "running": false
      },
      "pos": [
        0,
        0
      ]
    },
    {
      "id": 5,
      "plugin": "JW-Modules",
      "version": "1.0.9",
      "model": "NoteSeq16",
      "params": [
        {
          "id": 0,
          "value": 16.0
        },
        {
          "id": 1,
          "value": 0.0
        },
        {
          "id": 2,
          "value": 0.0
        },
        {
          "id": 3,
          "value": 0.0
        },
        {
          "id": 4,
          "value": 0.100000001
        },
        {
          "id": 5,
          "value": 11.0
        },
        {
          "id": 6,
          "value": 0.0
        },
        {
          "id": 7,
          "value": 0.0
        },
        {
          "id": 8,
          "value": 0.0
        },
        {
          "id": 9,
          "value": 0.0
        }
      ],
      "leftModuleId": 3,
      "rightModuleId": 2,
      "data": {
        "channels": 1,
        "cells": [
          0,
          0,
          0,
          0,
          0,
          0,
          0,
          0,
          0,
          0,
          0,
          0,
          0,
          0,
          0,
          0,
          0,
          0,
          0,
          0,
          0,
          0,
          0,
          0,
          0,
          0,
          0,
          0,
          0,
          0,
          0,
          0,
          0,
          0,
          0,
          0,
          0,
          0,
          0,
          0,
          0,
          0,
          0,
          0,
          0,
          0,
          0,
          0,
          0,
          0,
          0,
          0,
          0,
          0,
          0,
          0,
          0,
          0,
          0,
          0,
          0,
          0,
          0,
          1,
          0,
          0,
          0,
          0,
          0,
          0,
          0,
          0,
          0,
          0,
          0,
          0,
          0,
          0,
          0,
          0,
          0,
          0,
          0,
          0,
          0,
          0,
          0,
          0,
          0,
          0,
          0,
          0,
          0,
          0,
          0,
          0,
          0,
          0,
          0,
          0,
          0,
          0,
          0,
          0,
          0,
          0,
          0,
          0,
          0,
          0,
          0,
          0,
          0,
          0,
          0,
          0,
          0,
          0,
          0,
          0,
          0,
          0,
          0,
          0,
          0,
          0,
          0,
          0,
          0,
          0,
          0,
          0,
          0,
          0,
          0,
          0,
          0,
          0,
          0,
          0,
          0,
          0,
          1,
          0,
          0,
          0,
          0,
          0,
          0,
          0,
          0,
          0,
          0,
          0,
          0,
          0,
          0,
          0,
          0,
          0,
          0,
          0,
          0,
          0,
          0,
          0,
          0,
          0,
          0,
          0,
          0,
          0,
          0,
          0,
          0,
          0,
          0,
          0,
          0,
          0,
          0,
          0,
          0,
          0,
          0,
          0,
          0,
          0,
          0,
          0,
          0,
          0,
          0,
          0,
          0,
          0,
          0,
          0,
          0,
          0,
          0,
          0,
          0,
          0,
          0,
          0,
          0,
          0,
          0,
          0,
          0,
          0,
          0,
          0,
          0,
          0,
          0,
          0,
          0,
          0,
          0,
          1,
          0,
          0,
          0,
          0,
          0,
          0,
          0,
          0,
          0,
          0,
          0,
          0,
          0,
          0,
          0,
          0,
          0,
          0,
          1,
          0,
          1,
          0,
          0,
          0,
          1,
          0,
          1,
          0,
          0,
          1,
          0,
          0,
          0,
          0
        ]
      },
      "pos": [
        4,
        0
      ]
    },
    {
      "id": 6,
      "plugin": "Bogaudio",
      "version": "1.1.25",
      "model": "Bogaudio-ADSR",
      "params": [
        {
          "id": 0,
          "value": 0.0374999978
        },
        {
          "id": 1,
          "value": 0.316229999
        },
        {
          "id": 2,
          "value": 0.0
        },
        {
          "id": 3,
          "value": 0.316229999
        },
        {
          "id": 4,
          "value": 0.0
        }
      ],
      "leftModuleId": 15,
      "rightModuleId": 8,
      "data": {
        "invert": 1.0
      },
      "pos": [
        33,
        0
      ]
    },
    {
      "id": 8,
      "plugin": "Fundamental",
      "version": "1.4.0",
      "model": "Scope",
      "params": [
        {
          "id": 0,
          "value": 0.0
        },
        {
          "id": 1,
          "value": 0.0
        },
        {
          "id": 2,
          "value": 0.0
        },
        {
          "id": 3,
          "value": 0.0
        },
        {
          "id": 4,
          "value": 14.0
        },
        {
          "id": 5,
          "value": 0.0
        },
        {
          "id": 6,
          "value": 0.0
        },
        {
          "id": 7,
          "value": 0.0
        }
      ],
      "leftModuleId": 6,
      "rightModuleId": 0,
      "data": {
        "lissajous": 0,
        "external": 0
      },
      "pos": [
        36,
        0
      ]
    },
    {
      "id": 9,
      "plugin": "MockbaModular",
      "version": "1.1.0",
      "model": "CZSquare",
      "params": [
        {
          "id": 0,
          "value": -14.9999914
        },
        {
          "id": 1,
          "value": 0.0
        },
        {
          "id": 2,
          "value": 0.0
        }
      ],
      "leftModuleId": 2,
      "rightModuleId": 10,
      "pos": [
        19,
        0
      ]
    },
    {
      "id": 10,
      "plugin": "MockbaModular",
      "version": "1.1.0",
      "model": "CZPulse",
      "params": [
        {
          "id": 0,
          "value": -14.9999914
        },
        {
          "id": 1,
          "value": 0.0
        },
        {
          "id": 2,
          "value": 0.0
        }
      ],
      "leftModuleId": 9,
      "rightModuleId": 11,
      "pos": [
        21,
        0
      ]
    },
    {
      "id": 11,
      "plugin": "MockbaModular",
      "version": "1.1.0",
      "model": "CZDblSine",
      "params": [
        {
          "id": 0,
          "value": -14.9999914
        },
        {
          "id": 1,
          "value": 0.0
        },
        {
          "id": 2,
          "value": 0.0
        }
      ],
      "leftModuleId": 10,
      "rightModuleId": 12,
      "pos": [
        23,
        0
      ]
    },
    {
      "id": 12,
      "plugin": "MockbaModular",
      "version": "1.1.0",
      "model": "CZSawPulse",
      "params": [
        {
          "id": 0,
          "value": -14.9999914
        },
        {
          "id": 1,
          "value": 0.0
        },
        {
          "id": 2,
          "value": 0.0
        }
      ],
      "leftModuleId": 11,
      "rightModuleId": 13,
      "pos": [
        25,
        0
      ]
    },
    {
      "id": 13,
      "plugin": "MockbaModular",
      "version": "1.1.0",
      "model": "CZReso1",
      "params": [
        {
          "id": 0,
          "value": -14.9999914
        },
        {
          "id": 1,
          "value": 0.0
        },
        {
          "id": 2,
          "value": 0.0
        }
      ],
      "leftModuleId": 12,
      "rightModuleId": 14,
      "pos": [
        27,
        0
      ]
    },
    {
      "id": 14,
      "plugin": "MockbaModular",
      "version": "1.1.0",
      "model": "CZReso2",
      "params": [
        {
          "id": 0,
          "value": -14.9999914
        },
        {
          "id": 1,
          "value": 0.0
        },
        {
          "id": 2,
          "value": 0.0
        }
      ],
      "leftModuleId": 13,
      "rightModuleId": 15,
      "pos": [
        29,
        0
      ]
    },
    {
      "id": 15,
      "plugin": "MockbaModular",
      "version": "1.1.0",
      "model": "CZReso3",
      "params": [
        {
          "id": 0,
          "value": -14.9999914
        },
        {
          "id": 1,
          "value": 0.0
        },
        {
          "id": 2,
          "value": 0.0
        }
      ],
      "leftModuleId": 14,
      "rightModuleId": 6,
      "pos": [
        31,
        0
      ]
    }
  ],
  "cables": [
    {
      "id": 0,
      "outputModuleId": 0,
      "outputId": 0,
      "inputModuleId": 1,
      "inputId": 0,
      "color": "#100f12"
    },
    {
      "id": 1,
      "outputModuleId": 0,
      "outputId": 1,
      "inputModuleId": 1,
      "inputId": 1,
      "color": "#803610"
    },
    {
      "id": 2,
      "outputModuleId": 5,
      "outputId": 0,
      "inputModuleId": 2,
      "inputId": 0,
      "color": "#c9b70e"
    },
    {
      "id": 3,
      "outputModuleId": 5,
      "outputId": 1,
      "inputModuleId": 6,
      "inputId": 0,
      "color": "#0c8e15"
    },
    {
      "id": 4,
      "outputModuleId": 6,
      "outputId": 0,
      "inputModuleId": 0,
      "inputId": 0,
      "color": "#0986ad"
    },
    {
      "id": 6,
      "outputModuleId": 3,
      "outputId": 0,
      "inputModuleId": 5,
      "inputId": 0,
      "color": "#808080"
    },
    {
      "id": 7,
      "outputModuleId": 3,
      "outputId": 1,
      "inputModuleId": 5,
      "inputId": 1,
      "color": "#ffffff"
    },
    {
      "id": 8,
      "outputModuleId": 6,
      "outputId": 0,
      "inputModuleId": 2,
      "inputId": 1,
      "color": "#100f12"
    },
    {
      "id": 10,
      "outputModuleId": 5,
      "outputId": 0,
      "inputModuleId": 9,
      "inputId": 0,
      "color": "#c91847"
    },
    {
      "id": 11,
      "outputModuleId": 6,
      "outputId": 0,
      "inputModuleId": 9,
      "inputId": 1,
      "color": "#ff9941"
    },
    {
      "id": 12,
      "outputModuleId": 5,
      "outputId": 0,
      "inputModuleId": 10,
      "inputId": 0,
      "color": "#c9b70e"
    },
    {
      "id": 13,
      "outputModuleId": 6,
      "outputId": 0,
      "inputModuleId": 10,
      "inputId": 1,
      "color": "#0c8e15"
    },
    {
      "id": 14,
      "outputModuleId": 5,
      "outputId": 0,
      "inputModuleId": 11,
      "inputId": 0,
      "color": "#0986ad"
    },
    {
      "id": 15,
      "outputModuleId": 6,
      "outputId": 0,
      "inputModuleId": 11,
      "inputId": 1,
      "color": "#b700b5"
    },
    {
      "id": 16,
      "outputModuleId": 5,
      "outputId": 0,
      "inputModuleId": 12,
      "inputId": 0,
      "color": "#808080"
    },
    {
      "id": 17,
      "outputModuleId": 6,
      "outputId": 0,
      "inputModuleId": 12,
      "inputId": 1,
      "color": "#ffffff"
    },
    {
      "id": 18,
      "outputModuleId": 5,
      "outputId": 0,
      "inputModuleId": 13,
      "inputId": 0,
      "color": "#100f12"
    },
    {
      "id": 19,
      "outputModuleId": 6,
      "outputId": 0,
      "inputModuleId": 13,
      "inputId": 1,
      "color": "#803610"
    },
    {
      "id": 20,
      "outputModuleId": 5,
      "outputId": 0,
      "inputModuleId": 14,
      "inputId": 0,
      "color": "#c91847"
    },
    {
      "id": 21,
      "outputModuleId": 6,
      "outputId": 0,
      "inputModuleId": 14,
      "inputId": 1,
      "color": "#ff9941"
    },
    {
      "id": 22,
      "outputModuleId": 5,
      "outputId": 0,
      "inputModuleId": 15,
      "inputId": 0,
      "color": "#c9b70e"
    },
    {
      "id": 23,
      "outputModuleId": 6,
      "outputId": 0,
      "inputModuleId": 15,
      "inputId": 1,
      "color": "#0c8e15"
    },
    {
      "id": 5,
      "outputModuleId": 15,
      "outputId": 0,
      "inputModuleId": 0,
      "inputId": 1,
      "color": "#b700b5"
    },
    {
      "id": 60,
      "outputModuleId": 15,
      "outputId": 0,
      "inputModuleId": 8,
      "inputId": 0,
      "color": "#b700b5"
    }
  ]
}