{
  "version": "1.1.6",
  "modules": [
    {
      "id": 0,
      "plugin": "MockbaModular",
      "version": "1.1.3",
      "model": "FeidahS",
      "params": [
        {
          "id": 0,
          "value": 0.128999978
        }
      ],
      "leftModuleId": 8,
      "rightModuleId": 54,
      "pos": [
        54,
        0
      ]
    },
    {
      "id": 1,
      "plugin": "Core",
      "version": "1.1.6",
      "model": "AudioInterface",
      "params": [],
      "leftModuleId": 54,
      "data": {
        "audio": {
          "driver": 7,
          "deviceName": "ASIO Link Pro",
          "offset": 0,
          "maxChannels": 8,
          "sampleRate": 44100,
          "blockSize": 256
        }
      },
      "pos": [
        62,
        0
      ]
    },
    {
      "id": 2,
      "plugin": "MockbaModular",
      "version": "1.1.3",
      "model": "CZSaw",
      "params": [
        {
          "id": 0,
          "value": 0.0
        },
        {
          "id": 1,
          "value": 0.0
        },
        {
          "id": 2,
          "value": 0.0
        },
        {
          "id": 3,
          "value": 0.0
        }
      ],
      "leftModuleId": 5,
      "rightModuleId": 9,
      "pos": [
        17,
        0
      ]
    },
    {
      "id": 3,
      "plugin": "JW-Modules",
      "version": "1.0.9",
      "model": "SimpleClock",
      "params": [
        {
          "id": 0,
          "value": 2.38000011
        },
        {
          "id": 1,
          "value": 0.0
        },
        {
          "id": 2,
          "value": -2.0
        },
        {
          "id": 3,
          "value": 0.0
        }
      ],
      "rightModuleId": 5,
      "data": {
        "running": true
      },
      "pos": [
        0,
        0
      ]
    },
    {
      "id": 5,
      "plugin": "JW-Modules",
      "version": "1.0.9",
      "model": "NoteSeq16",
      "params": [
        {
          "id": 0,
          "value": 16.0
        },
        {
          "id": 1,
          "value": 0.0
        },
        {
          "id": 2,
          "value": 0.0
        },
        {
          "id": 3,
          "value": 0.0
        },
        {
          "id": 4,
          "value": 0.0324999504
        },
        {
          "id": 5,
          "value": 11.0
        },
        {
          "id": 6,
          "value": 7.0
        },
        {
          "id": 7,
          "value": -2.0
        },
        {
          "id": 8,
          "value": 0.0
        },
        {
          "id": 9,
          "value": 0.0
        }
      ],
      "leftModuleId": 3,
      "rightModuleId": 2,
      "data": {
        "channels": 1,
        "cells": [
          0,
          0,
          0,
          0,
          0,
          0,
          0,
          0,
          0,
          0,
          0,
          0,
          0,
          0,
          0,
          0,
          0,
          0,
          0,
          0,
          0,
          0,
          0,
          0,
          0,
          0,
          0,
          0,
          0,
          0,
          0,
          0,
          0,
          0,
          0,
          0,
          0,
          0,
          0,
          0,
          0,
          0,
          0,
          0,
          1,
          0,
          0,
          0,
          0,
          0,
          0,
          0,
          0,
          0,
          0,
          0,
          0,
          0,
          0,
          0,
          0,
          0,
          0,
          0,
          0,
          0,
          0,
          0,
          0,
          0,
          0,
          0,
          0,
          0,
          0,
          0,
          0,
          0,
          0,
          0,
          0,
          0,
          0,
          0,
          0,
          0,
          0,
          0,
          0,
          0,
          0,
          0,
          0,
          0,
          1,
          0,
          0,
          0,
          0,
          0,
          0,
          0,
          0,
          0,
          0,
          0,
          0,
          0,
          0,
          0,
          0,
          0,
          0,
          0,
          0,
          0,
          0,
          0,
          0,
          0,
          0,
          0,
          0,
          0,
          0,
          0,
          0,
          0,
          0,
          0,
          0,
          0,
          0,
          0,
          0,
          0,
          0,
          0,
          0,
          0,
          0,
          0,
          0,
          0,
          0,
          0,
          0,
          0,
          0,
          0,
          0,
          0,
          0,
          0,
          0,
          0,
          0,
          1,
          0,
          0,
          0,
          0,
          0,
          0,
          0,
          0,
          0,
          0,
          0,
          0,
          0,
          0,
          0,
          0,
          0,
          0,
          0,
          1,
          0,
          0,
          0,
          0,
          0,
          0,
          0,
          0,
          0,
          0,
          0,
          0,
          0,
          0,
          0,
          0,
          0,
          0,
          0,
          0,
          0,
          0,
          0,
          0,
          0,
          0,
          0,
          0,
          0,
          0,
          0,
          0,
          0,
          0,
          0,
          0,
          0,
          0,
          0,
          0,
          0,
          0,
          0,
          0,
          0,
          0,
          0,
          0,
          0,
          0,
          0,
          0,
          0,
          0,
          0,
          0,
          0,
          0,
          0,
          0,
          0,
          0,
          0,
          0,
          0,
          0,
          0,
          0,
          0,
          0,
          0,
          0,
          0,
          0,
          1,
          0,
          0,
          0
        ]
      },
      "pos": [
        4,
        0
      ]
    },
    {
      "id": 8,
      "plugin": "Fundamental",
      "version": "1.4.0",
      "model": "Scope",
      "params": [
        {
          "id": 0,
          "value": 0.0
        },
        {
          "id": 1,
          "value": 0.0
        },
        {
          "id": 2,
          "value": 0.0
        },
        {
          "id": 3,
          "value": 0.0
        },
        {
          "id": 4,
          "value": 16.0
        },
        {
          "id": 5,
          "value": 0.0
        },
        {
          "id": 6,
          "value": 0.0
        },
        {
          "id": 7,
          "value": 0.0
        }
      ],
      "leftModuleId": 51,
      "rightModuleId": 0,
      "data": {
        "lissajous": 1,
        "external": 0
      },
      "pos": [
        41,
        0
      ]
    },
    {
      "id": 9,
      "plugin": "MockbaModular",
      "version": "1.1.3",
      "model": "CZSquare",
      "params": [
        {
          "id": 0,
          "value": 0.0
        },
        {
          "id": 1,
          "value": 0.0
        },
        {
          "id": 2,
          "value": 0.0
        },
        {
          "id": 3,
          "value": 0.0
        }
      ],
      "leftModuleId": 2,
      "rightModuleId": 10,
      "pos": [
        19,
        0
      ]
    },
    {
      "id": 10,
      "plugin": "MockbaModular",
      "version": "1.1.3",
      "model": "CZPulse",
      "params": [
        {
          "id": 0,
          "value": 0.0
        },
        {
          "id": 1,
          "value": 0.0
        },
        {
          "id": 2,
          "value": 0.0
        },
        {
          "id": 3,
          "value": 0.0
        }
      ],
      "leftModuleId": 9,
      "rightModuleId": 11,
      "pos": [
        21,
        0
      ]
    },
    {
      "id": 11,
      "plugin": "MockbaModular",
      "version": "1.1.3",
      "model": "CZDblSine",
      "params": [
        {
          "id": 0,
          "value": 0.0
        },
        {
          "id": 1,
          "value": 0.0
        },
        {
          "id": 2,
          "value": 0.0
        }
      ],
      "leftModuleId": 10,
      "rightModuleId": 12,
      "pos": [
        23,
        0
      ]
    },
    {
      "id": 12,
      "plugin": "MockbaModular",
      "version": "1.1.3",
      "model": "CZSawPulse",
      "params": [
        {
          "id": 0,
          "value": 0.0
        },
        {
          "id": 1,
          "value": 0.0
        },
        {
          "id": 2,
          "value": 0.0
        }
      ],
      "leftModuleId": 11,
      "rightModuleId": 13,
      "pos": [
        25,
        0
      ]
    },
    {
      "id": 13,
      "plugin": "MockbaModular",
      "version": "1.1.3",
      "model": "CZReso1",
      "params": [
        {
          "id": 0,
          "value": 0.0
        },
        {
          "id": 1,
          "value": 0.0
        },
        {
          "id": 2,
          "value": 0.0
        }
      ],
      "leftModuleId": 12,
      "rightModuleId": 14,
      "pos": [
        27,
        0
      ]
    },
    {
      "id": 14,
      "plugin": "MockbaModular",
      "version": "1.1.3",
      "model": "CZReso2",
      "params": [
        {
          "id": 0,
          "value": 0.0
        },
        {
          "id": 1,
          "value": 0.0
        },
        {
          "id": 2,
          "value": 0.0
        }
      ],
      "leftModuleId": 13,
      "rightModuleId": 15,
      "pos": [
        29,
        0
      ]
    },
    {
      "id": 15,
      "plugin": "MockbaModular",
      "version": "1.1.3",
      "model": "CZReso3",
      "params": [
        {
          "id": 0,
          "value": 0.0
        },
        {
          "id": 1,
          "value": 0.0
        },
        {
          "id": 2,
          "value": 0.914999843
        }
      ],
      "leftModuleId": 14,
      "rightModuleId": 56,
      "pos": [
        31,
        0
      ]
    },
    {
      "id": 51,
      "plugin": "MockbaModular",
      "version": "1.1.3",
      "model": "Shapah",
      "params": [
        {
          "id": 0,
          "value": 0.0
        },
        {
          "id": 1,
          "value": 0.5
        },
        {
          "id": 2,
          "value": 0.364501238
        },
        {
          "id": 3,
          "value": 0.584500968
        }
      ],
      "leftModuleId": 58,
      "rightModuleId": 8,
      "pos": [
        39,
        0
      ]
    },
    {
      "id": 54,
      "plugin": "Autodafe",
      "version": "1.0.1",
      "model": "ReverbFx",
      "params": [
        {
          "id": 0,
          "value": 5.0
        },
        {
          "id": 1,
          "value": 0.5
        }
      ],
      "leftModuleId": 0,
      "rightModuleId": 1,
      "pos": [
        56,
        0
      ]
    },
    {
      "id": 56,
      "plugin": "MockbaModular",
      "version": "1.1.3",
      "model": "Selectah",
      "params": [
        {
          "id": 0,
          "value": 0.0
        }
      ],
      "leftModuleId": 15,
      "rightModuleId": 57,
      "pos": [
        33,
        0
      ]
    },
    {
      "id": 57,
      "plugin": "MockbaModular",
      "version": "1.1.3",
      "model": "Selectah",
      "params": [
        {
          "id": 0,
          "value": 0.0
        }
      ],
      "leftModuleId": 56,
      "rightModuleId": 58,
      "pos": [
        35,
        0
      ]
    },
    {
      "id": 58,
      "plugin": "MockbaModular",
      "version": "1.1.3",
      "model": "Mixah",
      "params": [
        {
          "id": 0,
          "value": 0.5
        },
        {
          "id": 1,
          "value": 0.0
        }
      ],
      "leftModuleId": 57,
      "rightModuleId": 51,
      "pos": [
        37,
        0
      ]
    }
  ],
  "cables": [
    {
      "id": 80,
      "outputModuleId": 3,
      "outputId": 0,
      "inputModuleId": 5,
      "inputId": 0,
      "color": "#c91847"
    },
    {
      "id": 81,
      "outputModuleId": 3,
      "outputId": 1,
      "inputModuleId": 5,
      "inputId": 1,
      "color": "#ff9941"
    },
    {
      "id": 82,
      "outputModuleId": 3,
      "outputId": 4,
      "inputModuleId": 5,
      "inputId": 2,
      "color": "#c9b70e"
    },
    {
      "id": 83,
      "outputModuleId": 5,
      "outputId": 0,
      "inputModuleId": 2,
      "inputId": 0,
      "color": "#803610"
    },
    {
      "id": 84,
      "outputModuleId": 5,
      "outputId": 0,
      "inputModuleId": 9,
      "inputId": 0,
      "color": "#c91847"
    },
    {
      "id": 85,
      "outputModuleId": 5,
      "outputId": 0,
      "inputModuleId": 10,
      "inputId": 0,
      "color": "#ff9941"
    },
    {
      "id": 86,
      "outputModuleId": 5,
      "outputId": 0,
      "inputModuleId": 11,
      "inputId": 0,
      "color": "#c9b70e"
    },
    {
      "id": 87,
      "outputModuleId": 5,
      "outputId": 0,
      "inputModuleId": 12,
      "inputId": 0,
      "color": "#0c8e15"
    },
    {
      "id": 88,
      "outputModuleId": 5,
      "outputId": 0,
      "inputModuleId": 13,
      "inputId": 0,
      "color": "#0986ad"
    },
    {
      "id": 89,
      "outputModuleId": 5,
      "outputId": 0,
      "inputModuleId": 14,
      "inputId": 0,
      "color": "#b700b5"
    },
    {
      "id": 90,
      "outputModuleId": 5,
      "outputId": 0,
      "inputModuleId": 15,
      "inputId": 0,
      "color": "#808080"
    },
    {
      "id": 103,
      "outputModuleId": 5,
      "outputId": 1,
      "inputModuleId": 51,
      "inputId": 0,
      "color": "#100f12"
    },
    {
      "id": 104,
      "outputModuleId": 51,
      "outputId": 0,
      "inputModuleId": 0,
      "inputId": 0,
      "color": "#100f12"
    },
    {
      "id": 106,
      "outputModuleId": 0,
      "outputId": 0,
      "inputModuleId": 1,
      "inputId": 0,
      "color": "#803610"
    },
    {
      "id": 107,
      "outputModuleId": 0,
      "outputId": 1,
      "inputModuleId": 1,
      "inputId": 1,
      "color": "#c91847"
    },
    {
      "id": 108,
      "outputModuleId": 51,
      "outputId": 0,
      "inputModuleId": 2,
      "inputId": 1,
      "color": "#803610"
    },
    {
      "id": 109,
      "outputModuleId": 51,
      "outputId": 0,
      "inputModuleId": 9,
      "inputId": 1,
      "color": "#c91847"
    },
    {
      "id": 110,
      "outputModuleId": 51,
      "outputId": 0,
      "inputModuleId": 10,
      "inputId": 1,
      "color": "#ff9941"
    },
    {
      "id": 111,
      "outputModuleId": 51,
      "outputId": 0,
      "inputModuleId": 11,
      "inputId": 1,
      "color": "#c9b70e"
    },
    {
      "id": 112,
      "outputModuleId": 51,
      "outputId": 0,
      "inputModuleId": 12,
      "inputId": 1,
      "color": "#0c8e15"
    },
    {
      "id": 113,
      "outputModuleId": 51,
      "outputId": 0,
      "inputModuleId": 13,
      "inputId": 1,
      "color": "#0986ad"
    },
    {
      "id": 114,
      "outputModuleId": 51,
      "outputId": 0,
      "inputModuleId": 14,
      "inputId": 1,
      "color": "#b700b5"
    },
    {
      "id": 115,
      "outputModuleId": 51,
      "outputId": 0,
      "inputModuleId": 15,
      "inputId": 1,
      "color": "#808080"
    },
    {
      "id": 94,
      "outputModuleId": 11,
      "outputId": 0,
      "inputModuleId": 56,
      "inputId": 4,
      "color": "#c9b70e"
    },
    {
      "id": 93,
      "outputModuleId": 10,
      "outputId": 0,
      "inputModuleId": 56,
      "inputId": 3,
      "color": "#ff9941"
    },
    {
      "id": 92,
      "outputModuleId": 9,
      "outputId": 0,
      "inputModuleId": 56,
      "inputId": 2,
      "color": "#c91847"
    },
    {
      "id": 117,
      "outputModuleId": 2,
      "outputId": 0,
      "inputModuleId": 56,
      "inputId": 1,
      "color": "#803610"
    },
    {
      "id": 98,
      "outputModuleId": 15,
      "outputId": 0,
      "inputModuleId": 57,
      "inputId": 4,
      "color": "#808080"
    },
    {
      "id": 97,
      "outputModuleId": 14,
      "outputId": 0,
      "inputModuleId": 57,
      "inputId": 3,
      "color": "#b700b5"
    },
    {
      "id": 96,
      "outputModuleId": 13,
      "outputId": 0,
      "inputModuleId": 57,
      "inputId": 2,
      "color": "#0986ad"
    },
    {
      "id": 118,
      "outputModuleId": 12,
      "outputId": 0,
      "inputModuleId": 57,
      "inputId": 1,
      "color": "#0c8e15"
    },
    {
      "id": 100,
      "outputModuleId": 57,
      "outputId": 0,
      "inputModuleId": 58,
      "inputId": 3,
      "color": "#100f12"
    },
    {
      "id": 99,
      "outputModuleId": 56,
      "outputId": 0,
      "inputModuleId": 58,
      "inputId": 2,
      "color": "#ffffff"
    },
    {
      "id": 116,
      "outputModuleId": 56,
      "outputId": 0,
      "inputModuleId": 8,
      "inputId": 1,
      "color": "#ffffff"
    },
    {
      "id": 105,
      "outputModuleId": 58,
      "outputId": 0,
      "inputModuleId": 0,
      "inputId": 1,
      "color": "#ffffff"
    },
    {
      "id": 102,
      "outputModuleId": 57,
      "outputId": 0,
      "inputModuleId": 8,
      "inputId": 0,
      "color": "#ffffff"
    }
  ]
}