{
  "version": "1.1.6",
  "modules": [
    {
      "id": 1,
      "plugin": "Fundamental",
      "version": "1.4.0",
      "model": "Scope",
      "params": [
        {
          "id": 0,
          "value": 1.0
        },
        {
          "id": 1,
          "value": 0.0
        },
        {
          "id": 2,
          "value": 1.0
        },
        {
          "id": 3,
          "value": 0.0
        },
        {
          "id": 4,
          "value": 14.0
        },
        {
          "id": 5,
          "value": 0.0
        },
        {
          "id": 6,
          "value": 0.0
        },
        {
          "id": 7,
          "value": 0.0
        }
      ],
      "data": {
        "lissajous": 1,
        "external": 0
      },
      "pos": [
        57,
        0
      ]
    },
    {
      "id": 2,
      "plugin": "Core",
      "version": "1.1.6",
      "model": "AudioInterface",
      "params": [],
      "leftModuleId": 35,
      "data": {
        "audio": {
          "driver": 7,
          "deviceName": "ASIO Link Pro",
          "offset": 0,
          "maxChannels": 8,
          "sampleRate": 44100,
          "blockSize": 256
        }
      },
      "pos": [
        79,
        1
      ]
    },
    {
      "id": 3,
      "plugin": "MockbaModular",
      "version": "1.1.0",
      "model": "CZSaw",
      "params": [
        {
          "id": 0,
          "value": 0.0
        },
        {
          "id": 1,
          "value": 0.0
        },
        {
          "id": 2,
          "value": 4.19499445
        }
      ],
      "leftModuleId": 9,
      "rightModuleId": 7,
      "pos": [
        39,
        1
      ]
    },
    {
      "id": 4,
      "plugin": "MockbaModular",
      "version": "1.1.0",
      "model": "FeidahS",
      "params": [
        {
          "id": 0,
          "value": 0.502500117
        }
      ],
      "leftModuleId": 7,
      "pos": [
        44,
        1
      ]
    },
    {
      "id": 6,
      "plugin": "JW-Modules",
      "version": "1.0.9",
      "model": "NoteSeq16",
      "params": [
        {
          "id": 0,
          "value": 16.0
        },
        {
          "id": 1,
          "value": 0.0
        },
        {
          "id": 2,
          "value": 0.0
        },
        {
          "id": 3,
          "value": 0.0
        },
        {
          "id": 4,
          "value": 0.100000001
        },
        {
          "id": 5,
          "value": 11.0
        },
        {
          "id": 6,
          "value": 0.0
        },
        {
          "id": 7,
          "value": -2.0
        },
        {
          "id": 8,
          "value": 0.0
        },
        {
          "id": 9,
          "value": 0.0
        }
      ],
      "leftModuleId": 24,
      "rightModuleId": 9,
      "data": {
        "channels": 1,
        "cells": [
          0,
          0,
          0,
          0,
          0,
          0,
          0,
          0,
          0,
          0,
          0,
          0,
          0,
          0,
          0,
          0,
          0,
          0,
          0,
          0,
          0,
          0,
          0,
          0,
          0,
          0,
          0,
          0,
          0,
          0,
          0,
          0,
          0,
          0,
          0,
          0,
          0,
          1,
          0,
          0,
          0,
          0,
          0,
          0,
          0,
          0,
          0,
          0,
          0,
          0,
          0,
          0,
          0,
          0,
          0,
          0,
          0,
          0,
          0,
          0,
          0,
          0,
          0,
          0,
          0,
          0,
          0,
          0,
          0,
          0,
          0,
          0,
          0,
          0,
          0,
          0,
          0,
          0,
          0,
          0,
          0,
          0,
          0,
          0,
          0,
          0,
          0,
          0,
          0,
          0,
          0,
          0,
          0,
          0,
          0,
          0,
          0,
          0,
          1,
          0,
          0,
          0,
          0,
          0,
          1,
          0,
          0,
          0,
          0,
          0,
          0,
          0,
          0,
          0,
          0,
          0,
          0,
          0,
          0,
          0,
          0,
          0,
          0,
          0,
          0,
          0,
          0,
          0,
          0,
          0,
          0,
          0,
          0,
          0,
          0,
          0,
          0,
          0,
          0,
          0,
          0,
          0,
          0,
          0,
          0,
          0,
          0,
          0,
          0,
          0,
          0,
          0,
          0,
          0,
          0,
          1,
          0,
          0,
          0,
          0,
          0,
          0,
          0,
          0,
          0,
          0,
          0,
          0,
          0,
          0,
          0,
          0,
          0,
          0,
          0,
          0,
          0,
          0,
          0,
          0,
          0,
          0,
          0,
          0,
          0,
          0,
          0,
          0,
          0,
          0,
          0,
          0,
          0,
          0,
          0,
          0,
          0,
          0,
          0,
          0,
          0,
          0,
          0,
          0,
          0,
          0,
          0,
          0,
          0,
          0,
          0,
          0,
          0,
          0,
          0,
          0,
          0,
          0,
          0,
          0,
          0,
          0,
          1,
          0,
          0,
          0,
          0,
          0,
          0,
          0,
          0,
          0,
          0,
          0,
          0,
          0,
          0,
          0,
          0,
          0,
          1,
          0,
          0,
          1,
          0,
          0,
          1,
          0,
          0,
          1,
          0,
          0,
          1,
          0,
          0,
          0
        ]
      },
      "pos": [
        24,
        1
      ]
    },
    {
      "id": 7,
      "plugin": "Bogaudio",
      "version": "1.1.25",
      "model": "Bogaudio-ADSR",
      "params": [
        {
          "id": 0,
          "value": 0.0
        },
        {
          "id": 1,
          "value": 0.227730006
        },
        {
          "id": 2,
          "value": 0.692500532
        },
        {
          "id": 3,
          "value": 0.316229999
        },
        {
          "id": 4,
          "value": 0.0
        }
      ],
      "leftModuleId": 3,
      "rightModuleId": 4,
      "data": {
        "invert": 1.0
      },
      "pos": [
        41,
        1
      ]
    },
    {
      "id": 8,
      "plugin": "ImpromptuModular",
      "version": "1.1.3",
      "model": "Clocked",
      "params": [
        {
          "id": 0,
          "value": 120.0
        },
        {
          "id": 1,
          "value": 5.0
        },
        {
          "id": 2,
          "value": 2.0
        },
        {
          "id": 3,
          "value": 0.0
        },
        {
          "id": 4,
          "value": 0.0
        },
        {
          "id": 5,
          "value": 0.0
        },
        {
          "id": 6,
          "value": 0.0
        },
        {
          "id": 7,
          "value": 0.0
        },
        {
          "id": 8,
          "value": 0.5
        },
        {
          "id": 9,
          "value": 0.5
        },
        {
          "id": 10,
          "value": 0.5
        },
        {
          "id": 11,
          "value": 0.5
        },
        {
          "id": 12,
          "value": 0.0
        },
        {
          "id": 13,
          "value": 0.0
        },
        {
          "id": 14,
          "value": 0.0
        },
        {
          "id": 15,
          "value": 0.0
        },
        {
          "id": 16,
          "value": 0.0
        },
        {
          "id": 17,
          "value": 0.0
        },
        {
          "id": 18,
          "value": 0.0
        },
        {
          "id": 19,
          "value": 0.0
        }
      ],
      "data": {
        "panelTheme": 0,
        "running": false,
        "displayDelayNoteMode": true,
        "bpmDetectionMode": false,
        "restartOnStopStartRun": 0,
        "sendResetOnRestart": false,
        "ppqn": 4,
        "resetClockOutputsHigh": true,
        "momentaryRunInput": true
      },
      "pos": [
        0,
        0
      ]
    },
    {
      "id": 9,
      "plugin": "MockbaModular",
      "version": "1.1.0",
      "model": "Feidah",
      "params": [
        {
          "id": 0,
          "value": 0.478500366
        }
      ],
      "leftModuleId": 6,
      "rightModuleId": 3,
      "pos": [
        37,
        1
      ]
    },
    {
      "id": 11,
      "plugin": "Fundamental",
      "version": "1.4.0",
      "model": "VCMixer",
      "params": [
        {
          "id": 0,
          "value": 0.0120000001
        },
        {
          "id": 1,
          "value": 1.41421354
        },
        {
          "id": 2,
          "value": 1.1836971
        },
        {
          "id": 3,
          "value": 1.41421354
        },
        {
          "id": 4,
          "value": 1.00974882
        }
      ],
      "rightModuleId": 35,
      "pos": [
        57,
        1
      ]
    },
    {
      "id": 16,
      "plugin": "JW-Modules",
      "version": "1.0.9",
      "model": "NoteSeq16",
      "params": [
        {
          "id": 0,
          "value": 16.0
        },
        {
          "id": 1,
          "value": 0.0
        },
        {
          "id": 2,
          "value": 0.0
        },
        {
          "id": 3,
          "value": 0.0
        },
        {
          "id": 4,
          "value": 0.100000001
        },
        {
          "id": 5,
          "value": 11.0
        },
        {
          "id": 6,
          "value": 0.0
        },
        {
          "id": 7,
          "value": -2.0
        },
        {
          "id": 8,
          "value": 0.0
        },
        {
          "id": 9,
          "value": 0.0
        }
      ],
      "leftModuleId": 34,
      "rightModuleId": 28,
      "data": {
        "channels": 1,
        "cells": [
          0,
          0,
          0,
          0,
          1,
          0,
          0,
          0,
          0,
          0,
          0,
          0,
          1,
          0,
          0,
          0,
          0,
          0,
          0,
          0,
          0,
          0,
          0,
          0,
          0,
          0,
          0,
          0,
          0,
          0,
          0,
          0,
          0,
          0,
          0,
          0,
          0,
          0,
          0,
          0,
          0,
          0,
          0,
          0,
          0,
          0,
          0,
          0,
          0,
          0,
          0,
          0,
          0,
          0,
          0,
          0,
          0,
          0,
          0,
          0,
          0,
          0,
          0,
          0,
          0,
          0,
          0,
          0,
          0,
          0,
          0,
          0,
          0,
          0,
          0,
          0,
          0,
          0,
          0,
          0,
          0,
          0,
          0,
          0,
          0,
          0,
          0,
          0,
          0,
          0,
          0,
          0,
          0,
          0,
          0,
          0,
          0,
          0,
          0,
          0,
          0,
          0,
          0,
          0,
          0,
          0,
          0,
          0,
          0,
          0,
          0,
          0,
          0,
          0,
          0,
          0,
          0,
          0,
          0,
          0,
          0,
          0,
          0,
          0,
          0,
          0,
          0,
          0,
          0,
          0,
          0,
          0,
          0,
          0,
          0,
          0,
          0,
          0,
          0,
          0,
          0,
          0,
          0,
          0,
          0,
          0,
          0,
          0,
          0,
          0,
          0,
          0,
          0,
          0,
          0,
          0,
          0,
          0,
          0,
          0,
          0,
          0,
          0,
          0,
          0,
          0,
          0,
          0,
          0,
          0,
          0,
          0,
          0,
          0,
          0,
          0,
          0,
          0,
          0,
          0,
          0,
          0,
          0,
          0,
          0,
          0,
          0,
          0,
          0,
          0,
          0,
          0,
          0,
          0,
          0,
          0,
          0,
          0,
          0,
          0,
          0,
          0,
          0,
          0,
          0,
          0,
          0,
          0,
          0,
          0,
          0,
          0,
          0,
          0,
          0,
          0,
          0,
          0,
          0,
          0,
          0,
          0,
          0,
          0,
          0,
          0,
          0,
          0,
          0,
          0,
          0,
          0,
          0,
          0,
          0,
          0,
          0,
          0,
          0,
          0,
          1,
          0,
          0,
          0,
          0,
          0,
          0,
          0,
          1,
          0,
          0,
          0,
          0,
          0,
          0,
          0
        ]
      },
      "pos": [
        35,
        2
      ]
    },
    {
      "id": 17,
      "plugin": "MockbaModular",
      "version": "1.1.0",
      "model": "CZSaw",
      "params": [
        {
          "id": 0,
          "value": 0.0
        },
        {
          "id": 1,
          "value": 0.0
        },
        {
          "id": 2,
          "value": 1.80999672
        }
      ],
      "leftModuleId": 21,
      "rightModuleId": 48,
      "pos": [
        48,
        0
      ]
    },
    {
      "id": 18,
      "plugin": "JW-Modules",
      "version": "1.0.9",
      "model": "NoteSeq16",
      "params": [
        {
          "id": 0,
          "value": 16.0
        },
        {
          "id": 1,
          "value": 0.0
        },
        {
          "id": 2,
          "value": 0.0
        },
        {
          "id": 3,
          "value": 0.0
        },
        {
          "id": 4,
          "value": 0.100000001
        },
        {
          "id": 5,
          "value": 11.0
        },
        {
          "id": 6,
          "value": 0.0
        },
        {
          "id": 7,
          "value": -1.0
        },
        {
          "id": 8,
          "value": 0.0
        },
        {
          "id": 9,
          "value": 0.0
        }
      ],
      "leftModuleId": 23,
      "rightModuleId": 19,
      "data": {
        "channels": 1,
        "cells": [
          0,
          0,
          0,
          0,
          0,
          0,
          0,
          0,
          0,
          0,
          0,
          0,
          0,
          0,
          0,
          0,
          0,
          0,
          0,
          0,
          0,
          0,
          0,
          0,
          0,
          0,
          0,
          0,
          0,
          0,
          0,
          0,
          0,
          0,
          0,
          0,
          0,
          0,
          0,
          0,
          0,
          0,
          0,
          0,
          1,
          0,
          1,
          0,
          0,
          0,
          0,
          0,
          0,
          0,
          0,
          0,
          0,
          0,
          0,
          0,
          0,
          0,
          0,
          0,
          0,
          0,
          0,
          0,
          0,
          0,
          0,
          0,
          0,
          0,
          0,
          0,
          0,
          0,
          0,
          0,
          0,
          0,
          0,
          0,
          0,
          0,
          0,
          0,
          0,
          0,
          1,
          0,
          0,
          0,
          0,
          0,
          0,
          0,
          0,
          0,
          0,
          0,
          0,
          0,
          0,
          0,
          0,
          0,
          0,
          0,
          0,
          0,
          0,
          0,
          0,
          0,
          0,
          0,
          0,
          0,
          0,
          0,
          0,
          0,
          0,
          0,
          0,
          0,
          0,
          0,
          0,
          0,
          0,
          0,
          0,
          0,
          0,
          0,
          0,
          0,
          0,
          0,
          0,
          0,
          0,
          0,
          0,
          0,
          1,
          0,
          0,
          0,
          0,
          0,
          0,
          0,
          0,
          0,
          0,
          0,
          0,
          0,
          0,
          0,
          0,
          0,
          0,
          0,
          0,
          0,
          0,
          0,
          0,
          0,
          0,
          0,
          0,
          0,
          0,
          0,
          0,
          0,
          0,
          0,
          0,
          0,
          0,
          0,
          0,
          0,
          0,
          0,
          0,
          0,
          0,
          0,
          0,
          0,
          0,
          0,
          0,
          0,
          0,
          0,
          0,
          0,
          0,
          0,
          0,
          0,
          0,
          0,
          0,
          0,
          0,
          0,
          0,
          0,
          0,
          0,
          0,
          0,
          0,
          0,
          0,
          0,
          0,
          0,
          0,
          0,
          0,
          0,
          0,
          0,
          0,
          0,
          0,
          0,
          0,
          0,
          1,
          0,
          1,
          0,
          0,
          0,
          0,
          0,
          0,
          0,
          0,
          0,
          0,
          0,
          0,
          0
        ]
      },
      "pos": [
        24,
        0
      ]
    },
    {
      "id": 19,
      "plugin": "Geodesics",
      "version": "1.0.0",
      "model": "Fate",
      "params": [
        {
          "id": 0,
          "value": 0.303000033
        },
        {
          "id": 1,
          "value": 0.183499664
        }
      ],
      "leftModuleId": 18,
      "rightModuleId": 22,
      "data": {
        "panelTheme": 1
      },
      "pos": [
        37,
        0
      ]
    },
    {
      "id": 21,
      "plugin": "Bogaudio",
      "version": "1.1.25",
      "model": "Bogaudio-ADSR",
      "params": [
        {
          "id": 0,
          "value": 0.0
        },
        {
          "id": 1,
          "value": 0.422730088
        },
        {
          "id": 2,
          "value": 0.34300074
        },
        {
          "id": 3,
          "value": 0.559230089
        },
        {
          "id": 4,
          "value": 0.0
        }
      ],
      "leftModuleId": 22,
      "rightModuleId": 17,
      "data": {
        "invert": 1.0
      },
      "pos": [
        45,
        0
      ]
    },
    {
      "id": 22,
      "plugin": "Fundamental",
      "version": "1.4.0",
      "model": "Quantizer",
      "params": [],
      "leftModuleId": 19,
      "rightModuleId": 21,
      "data": {
        "enabledNotes": [
          true,
          false,
          false,
          true,
          false,
          false,
          false,
          true,
          false,
          false,
          true,
          false
        ]
      },
      "pos": [
        42,
        0
      ]
    },
    {
      "id": 23,
      "plugin": "MockbaModular",
      "version": "1.1.0",
      "model": "Blank",
      "params": [],
      "rightModuleId": 18,
      "pos": [
        22,
        0
      ]
    },
    {
      "id": 24,
      "plugin": "MockbaModular",
      "version": "1.1.0",
      "model": "Blank",
      "params": [],
      "rightModuleId": 6,
      "pos": [
        22,
        1
      ]
    },
    {
      "id": 26,
      "plugin": "MockbaModular",
      "version": "1.1.0",
      "model": "Mixah",
      "params": [
        {
          "id": 0,
          "value": 0.237000272
        }
      ],
      "leftModuleId": 48,
      "pos": [
        52,
        0
      ]
    },
    {
      "id": 27,
      "plugin": "MockbaModular",
      "version": "1.1.0",
      "model": "CZReso1",
      "params": [
        {
          "id": 0,
          "value": -26.0280018
        },
        {
          "id": 1,
          "value": 0.0
        },
        {
          "id": 2,
          "value": 0.0
        }
      ],
      "leftModuleId": 28,
      "rightModuleId": 29,
      "pos": [
        51,
        2
      ]
    },
    {
      "id": 28,
      "plugin": "Bogaudio",
      "version": "1.1.25",
      "model": "Bogaudio-ADSR",
      "params": [
        {
          "id": 0,
          "value": 0.0
        },
        {
          "id": 1,
          "value": 0.0794999897
        },
        {
          "id": 2,
          "value": 0.0
        },
        {
          "id": 3,
          "value": 0.0
        },
        {
          "id": 4,
          "value": 0.0
        }
      ],
      "leftModuleId": 16,
      "rightModuleId": 27,
      "data": {
        "invert": 1.0
      },
      "pos": [
        48,
        2
      ]
    },
    {
      "id": 29,
      "plugin": "MockbaModular",
      "version": "1.1.0",
      "model": "Feidah",
      "params": [
        {
          "id": 0,
          "value": 1.0
        }
      ],
      "leftModuleId": 27,
      "pos": [
        53,
        2
      ]
    },
    {
      "id": 30,
      "plugin": "MockbaModular",
      "version": "1.1.0",
      "model": "CZPulse",
      "params": [
        {
          "id": 0,
          "value": 54.0
        },
        {
          "id": 1,
          "value": 0.0
        },
        {
          "id": 2,
          "value": 5.83500147
        }
      ],
      "leftModuleId": 32,
      "rightModuleId": 31,
      "pos": [
        27,
        2
      ]
    },
    {
      "id": 31,
      "plugin": "MockbaModular",
      "version": "1.1.0",
      "model": "Feidah",
      "params": [
        {
          "id": 0,
          "value": 1.0
        }
      ],
      "leftModuleId": 30,
      "pos": [
        29,
        2
      ]
    },
    {
      "id": 32,
      "plugin": "Bogaudio",
      "version": "1.1.25",
      "model": "Bogaudio-ADSR",
      "params": [
        {
          "id": 0,
          "value": 0.0
        },
        {
          "id": 1,
          "value": 0.0599999577
        },
        {
          "id": 2,
          "value": 0.0
        },
        {
          "id": 3,
          "value": 0.0
        },
        {
          "id": 4,
          "value": 0.0
        }
      ],
      "leftModuleId": 33,
      "rightModuleId": 30,
      "data": {
        "invert": 1.0
      },
      "pos": [
        24,
        2
      ]
    },
    {
      "id": 33,
      "plugin": "MockbaModular",
      "version": "1.1.0",
      "model": "Blank",
      "params": [],
      "rightModuleId": 32,
      "pos": [
        22,
        2
      ]
    },
    {
      "id": 34,
      "plugin": "MockbaModular",
      "version": "1.1.0",
      "model": "Blank",
      "params": [],
      "rightModuleId": 16,
      "pos": [
        33,
        2
      ]
    },
    {
      "id": 35,
      "plugin": "Valley",
      "version": "1.0.1",
      "model": "Plateau",
      "params": [
        {
          "id": 0,
          "value": 1.0
        },
        {
          "id": 1,
          "value": 0.221999809
        },
        {
          "id": 2,
          "value": 0.111750014
        },
        {
          "id": 3,
          "value": 10.0
        },
        {
          "id": 4,
          "value": 10.0
        },
        {
          "id": 5,
          "value": 0.144499764
        },
        {
          "id": 6,
          "value": 7.53999758
        },
        {
          "id": 7,
          "value": 0.405515939
        },
        {
          "id": 8,
          "value": 10.0
        },
        {
          "id": 9,
          "value": 10.0
        },
        {
          "id": 10,
          "value": 0.0
        },
        {
          "id": 11,
          "value": 0.5
        },
        {
          "id": 12,
          "value": 0.5
        },
        {
          "id": 13,
          "value": 0.0
        },
        {
          "id": 14,
          "value": 0.0
        },
        {
          "id": 15,
          "value": 0.0
        },
        {
          "id": 16,
          "value": 0.0
        },
        {
          "id": 17,
          "value": 0.0
        },
        {
          "id": 18,
          "value": 0.0
        },
        {
          "id": 19,
          "value": 0.0
        },
        {
          "id": 20,
          "value": 0.0
        },
        {
          "id": 21,
          "value": 0.0
        },
        {
          "id": 22,
          "value": 0.0
        },
        {
          "id": 23,
          "value": 0.0
        },
        {
          "id": 24,
          "value": 0.0
        },
        {
          "id": 25,
          "value": 0.0
        },
        {
          "id": 26,
          "value": 0.0
        },
        {
          "id": 27,
          "value": 0.0
        },
        {
          "id": 28,
          "value": 0.0
        },
        {
          "id": 29,
          "value": 0.0
        },
        {
          "id": 30,
          "value": 1.0
        }
      ],
      "leftModuleId": 11,
      "rightModuleId": 2,
      "data": {
        "frozen": false,
        "freezeToggle": false,
        "panelStyle": 1,
        "tuned": 0,
        "diffuseInput": 1,
        "preDelayCVSens": 0,
        "inputSensitivity": 0,
        "outputSaturation": 0
      },
      "pos": [
        67,
        1
      ]
    },
    {
      "id": 48,
      "plugin": "MockbaModular",
      "version": "1.1.0",
      "model": "CZReso3",
      "params": [
        {
          "id": 0,
          "value": 0.0
        },
        {
          "id": 1,
          "value": 0.0
        },
        {
          "id": 2,
          "value": 0.0
        }
      ],
      "leftModuleId": 17,
      "rightModuleId": 26,
      "pos": [
        50,
        0
      ]
    }
  ],
  "cables": [
    {
      "id": 2,
      "outputModuleId": 3,
      "outputId": 0,
      "inputModuleId": 4,
      "inputId": 1,
      "color": "#c91847"
    },
    {
      "id": 4,
      "outputModuleId": 6,
      "outputId": 1,
      "inputModuleId": 7,
      "inputId": 0,
      "color": "#c9b70e"
    },
    {
      "id": 5,
      "outputModuleId": 6,
      "outputId": 0,
      "inputModuleId": 3,
      "inputId": 0,
      "color": "#0c8e15"
    },
    {
      "id": 3,
      "outputModuleId": 7,
      "outputId": 0,
      "inputModuleId": 4,
      "inputId": 0,
      "color": "#ff9941"
    },
    {
      "id": 7,
      "outputModuleId": 8,
      "outputId": 1,
      "inputModuleId": 6,
      "inputId": 0,
      "color": "#b700b5"
    },
    {
      "id": 8,
      "outputModuleId": 3,
      "outputId": 0,
      "inputModuleId": 1,
      "inputId": 0,
      "color": "#808080"
    },
    {
      "id": 6,
      "outputModuleId": 7,
      "outputId": 0,
      "inputModuleId": 9,
      "inputId": 0,
      "color": "#0986ad"
    },
    {
      "id": 9,
      "outputModuleId": 9,
      "outputId": 0,
      "inputModuleId": 3,
      "inputId": 1,
      "color": "#ffffff"
    },
    {
      "id": 1,
      "outputModuleId": 4,
      "outputId": 0,
      "inputModuleId": 11,
      "inputId": 1,
      "color": "#803610"
    },
    {
      "id": 20,
      "outputModuleId": 8,
      "outputId": 1,
      "inputModuleId": 16,
      "inputId": 0,
      "color": "#803610"
    },
    {
      "id": 28,
      "outputModuleId": 19,
      "outputId": 0,
      "inputModuleId": 22,
      "inputId": 0,
      "color": "#100f12"
    },
    {
      "id": 29,
      "outputModuleId": 22,
      "outputId": 0,
      "inputModuleId": 17,
      "inputId": 0,
      "color": "#803610"
    },
    {
      "id": 30,
      "outputModuleId": 21,
      "outputId": 0,
      "inputModuleId": 17,
      "inputId": 1,
      "color": "#c91847"
    },
    {
      "id": 31,
      "outputModuleId": 18,
      "outputId": 0,
      "inputModuleId": 19,
      "inputId": 2,
      "color": "#ff9941"
    },
    {
      "id": 33,
      "outputModuleId": 8,
      "outputId": 2,
      "inputModuleId": 18,
      "inputId": 0,
      "color": "#0c8e15"
    },
    {
      "id": 34,
      "outputModuleId": 8,
      "outputId": 1,
      "inputModuleId": 19,
      "inputId": 1,
      "color": "#0986ad"
    },
    {
      "id": 35,
      "outputModuleId": 26,
      "outputId": 0,
      "inputModuleId": 1,
      "inputId": 1,
      "color": "#b700b5"
    },
    {
      "id": 37,
      "outputModuleId": 17,
      "outputId": 0,
      "inputModuleId": 26,
      "inputId": 0,
      "color": "#ffffff"
    },
    {
      "id": 39,
      "outputModuleId": 26,
      "outputId": 0,
      "inputModuleId": 11,
      "inputId": 4,
      "color": "#803610"
    },
    {
      "id": 27,
      "outputModuleId": 18,
      "outputId": 1,
      "inputModuleId": 21,
      "inputId": 0,
      "color": "#ffffff"
    },
    {
      "id": 42,
      "outputModuleId": 21,
      "outputId": 0,
      "inputModuleId": 26,
      "inputId": 2,
      "color": "#c9b70e"
    },
    {
      "id": 46,
      "outputModuleId": 16,
      "outputId": 0,
      "inputModuleId": 27,
      "inputId": 0,
      "color": "#808080"
    },
    {
      "id": 45,
      "outputModuleId": 16,
      "outputId": 1,
      "inputModuleId": 28,
      "inputId": 0,
      "color": "#b700b5"
    },
    {
      "id": 47,
      "outputModuleId": 28,
      "outputId": 0,
      "inputModuleId": 27,
      "inputId": 1,
      "color": "#ffffff"
    },
    {
      "id": 44,
      "outputModuleId": 29,
      "outputId": 0,
      "inputModuleId": 11,
      "inputId": 3,
      "color": "#0986ad"
    },
    {
      "id": 48,
      "outputModuleId": 27,
      "outputId": 0,
      "inputModuleId": 29,
      "inputId": 0,
      "color": "#100f12"
    },
    {
      "id": 49,
      "outputModuleId": 28,
      "outputId": 0,
      "inputModuleId": 29,
      "inputId": 1,
      "color": "#803610"
    },
    {
      "id": 50,
      "outputModuleId": 31,
      "outputId": 0,
      "inputModuleId": 11,
      "inputId": 2,
      "color": "#c91847"
    },
    {
      "id": 51,
      "outputModuleId": 30,
      "outputId": 0,
      "inputModuleId": 31,
      "inputId": 0,
      "color": "#ff9941"
    },
    {
      "id": 52,
      "outputModuleId": 32,
      "outputId": 0,
      "inputModuleId": 30,
      "inputId": 1,
      "color": "#c9b70e"
    },
    {
      "id": 53,
      "outputModuleId": 6,
      "outputId": 1,
      "inputModuleId": 32,
      "inputId": 0,
      "color": "#0c8e15"
    },
    {
      "id": 54,
      "outputModuleId": 32,
      "outputId": 0,
      "inputModuleId": 31,
      "inputId": 1,
      "color": "#0986ad"
    },
    {
      "id": 32,
      "outputModuleId": 8,
      "outputId": 5,
      "inputModuleId": 18,
      "inputId": 1,
      "color": "#c9b70e"
    },
    {
      "id": 21,
      "outputModuleId": 8,
      "outputId": 5,
      "inputModuleId": 16,
      "inputId": 1,
      "color": "#c91847"
    },
    {
      "id": 18,
      "outputModuleId": 8,
      "outputId": 5,
      "inputModuleId": 6,
      "inputId": 1,
      "color": "#ffffff"
    },
    {
      "id": 11,
      "outputModuleId": 35,
      "outputId": 1,
      "inputModuleId": 2,
      "inputId": 1,
      "color": "#803610"
    },
    {
      "id": 10,
      "outputModuleId": 35,
      "outputId": 0,
      "inputModuleId": 2,
      "inputId": 0,
      "color": "#100f12"
    },
    {
      "id": 55,
      "outputModuleId": 11,
      "outputId": 0,
      "inputModuleId": 35,
      "inputId": 0,
      "color": "#803610"
    },
    {
      "id": 56,
      "outputModuleId": 11,
      "outputId": 0,
      "inputModuleId": 35,
      "inputId": 1,
      "color": "#b700b5"
    },
    {
      "id": 57,
      "outputModuleId": 22,
      "outputId": 0,
      "inputModuleId": 48,
      "inputId": 0,
      "color": "#ff9941"
    },
    {
      "id": 58,
      "outputModuleId": 21,
      "outputId": 0,
      "inputModuleId": 48,
      "inputId": 1,
      "color": "#c9b70e"
    },
    {
      "id": 59,
      "outputModuleId": 48,
      "outputId": 0,
      "inputModuleId": 26,
      "inputId": 1,
      "color": "#0c8e15"
    }
  ]
}